<?xml version="1.0" encoding="UTF-8" standalone="no"?>
<!-- Created with Inkscape (http://www.inkscape.org/) -->

<svg
   xmlns:dc="http://purl.org/dc/elements/1.1/"
   xmlns:cc="http://creativecommons.org/ns#"
   xmlns:rdf="http://www.w3.org/1999/02/22-rdf-syntax-ns#"
   xmlns:svg="http://www.w3.org/2000/svg"
   xmlns="http://www.w3.org/2000/svg"
   xmlns:sodipodi="http://sodipodi.sourceforge.net/DTD/sodipodi-0.dtd"
   xmlns:inkscape="http://www.inkscape.org/namespaces/inkscape"
   width="1024"
   height="1024"
   viewBox="0 0 1024 1024"
   id="svg2"
   version="1.1"
   inkscape:version="0.91 r13725"
   sodipodi:docname="logoBlack.svg">
  <defs
     id="defs4" />
  <sodipodi:namedview
     id="base"
     pagecolor="#ffffff"
     bordercolor="#666666"
     borderopacity="1.0"
     inkscape:pageopacity="0.0"
     inkscape:pageshadow="2"
     inkscape:zoom="0.175"
     inkscape:cx="247.85726"
     inkscape:cy="675.78102"
     inkscape:document-units="px"
     inkscape:current-layer="layer1"
     showgrid="false"
     inkscape:window-width="1292"
     inkscape:window-height="745"
     inkscape:window-x="66"
     inkscape:window-y="-8"
     inkscape:window-maximized="1"
     units="px" />
  <metadata
     id="metadata7">
    <rdf:RDF>
      <cc:Work
         rdf:about="">
        <dc:format>image/svg+xml</dc:format>
        <dc:type
           rdf:resource="http://purl.org/dc/dcmitype/StillImage" />
        <dc:title></dc:title>
      </cc:Work>
    </rdf:RDF>
  </metadata>
  <g
     inkscape:label="Layer 1"
     inkscape:groupmode="layer"
     id="layer1"
     transform="translate(0,-28.362161)">
    <path
       style="fill:#000000"
       d="m 100.85741,1027.9266 c -72.520878,-0.765 -67.49128,-0.6027 -69.119436,-2.2311 -0.700516,-0.7006 -1.306394,-1.7082 -1.346381,-2.239 -0.03999,-0.5308 1.443991,-4.0817 3.297687,-7.8908 1.853696,-3.8091 4.776198,-9.8237 6.494475,-13.3657 1.718237,-3.54198 5.342602,-11.00994 8.054149,-16.5954 2.711546,-5.58551 6.439308,-13.27636 8.283889,-17.09083 1.844581,-3.81448 5.522844,-11.39389 8.173874,-16.84314 2.651034,-5.44924 6.326166,-13.02866 8.166982,-16.84313 1.840776,-3.81447 5.409618,-11.17096 7.930778,-16.34775 2.52112,-5.17678 6.19772,-12.75619 8.17019,-16.84313 1.97247,-4.08694 5.53893,-11.44342 7.9255,-16.34775 2.38658,-4.90432 5.956613,-12.26081 7.933403,-16.34775 1.97683,-4.08693 5.59933,-11.5549 8.04999,-16.59544 10.41405,-21.41959 12.81552,-26.36862 15.98548,-32.94318 1.83915,-3.81448 5.51436,-11.39389 8.16713,-16.84314 2.65278,-5.44925 6.33049,-13.02866 8.17265,-16.84313 1.8422,-3.81448 5.46296,-11.28244 8.04614,-16.59544 2.58322,-5.31304 6.25665,-12.89245 8.16321,-16.84314 11.04847,-22.89414 14.2829,-29.0315 15.75963,-29.90381 2.33093,-1.37694 4.75349,-1.11799 9.90329,1.0585 2.57993,1.09033 7.03147,2.90649 9.89231,4.03581 2.86087,1.12933 5.6474,2.2657 6.19232,2.52532 0.54493,0.25959 3.44294,1.45509 6.44003,2.6567 14.44106,5.7896 21.88442,8.8065 22.78777,9.2361 0.54492,0.25919 8.57018,3.48887 17.8339,7.17712 9.26373,3.68825 17.28898,6.92003 17.83391,7.18175 0.54492,0.26172 3.44293,1.4589 6.44002,2.6605 13.1554,5.27416 21.86988,8.79799 22.78777,9.21451 0.54492,0.24729 2.91786,1.25871 5.27321,2.24762 4.42217,1.85671 6.36698,3.36617 6.49304,5.03967 0.04,0.53129 -1.17184,3.51395 -2.69299,6.62815 -1.5212,3.11419 -4.2157,8.67163 -5.98788,12.3499 -1.77213,3.67822 -4.78365,9.92009 -6.69227,13.87081 -1.90862,3.95069 -4.85891,10.08111 -6.55622,13.62313 -3.21716,6.71375 -6.43443,13.38438 -13.49939,27.98932 -2.30652,4.76808 -5.58852,11.56727 -7.29336,15.10928 -1.7048,3.54202 -4.71643,9.78388 -6.69247,13.87082 -1.97603,4.08694 -4.87278,10.10588 -6.43721,13.37543 -1.56439,3.26955 -4.51403,9.39993 -6.55471,13.62312 -3.54344,7.33319 -5.94911,12.3161 -13.15389,27.24625 -1.77499,3.67822 -4.61538,9.58572 -6.31198,13.12774 -1.6966,3.54201 -4.48835,9.33803 -6.2039,12.88004 -3.6825,7.60307 -11.13367,23.02694 -14.83773,30.71395 -1.44419,2.99709 -4.29341,8.90455 -6.33159,13.12772 -2.03818,4.2232 -5.18261,10.7994 -6.98768,14.6139 -1.80503,3.8145 -3.56452,7.4927 -3.90995,8.1739 -0.34546,0.6811 -1.4038,1.6282 -2.35189,2.1046 -2.0335,1.0217 2.10325,1.0173 -85.6918,0.091 z M 891.71866,811.11579 c -2.71198,-1.07182 -6.04553,-2.36172 -7.40785,-2.86642 -1.36231,-0.50478 -4.26032,-1.61627 -6.44002,-2.47 -2.1797,-0.85377 -5.07771,-1.96839 -6.44002,-2.47693 -1.36231,-0.50858 -4.26032,-1.61944 -6.44002,-2.46861 -2.1797,-0.84921 -5.30063,-2.0574 -6.93541,-2.68495 -14.88794,-5.71514 -34.46755,-13.33069 -35.66781,-13.8732 -0.81739,-0.36948 -2.37786,-0.94999 -3.46771,-1.29014 -1.08985,-0.34019 -2.20447,-0.78287 -2.47693,-0.98372 -0.27246,-0.20093 -1.72148,-0.75869 -3.22001,-1.23946 -1.49856,-0.4808 -2.94755,-1.03809 -3.22001,-1.23846 -0.27246,-0.20041 -1.72149,-0.7577 -3.22001,-1.23847 -1.49856,-0.4808 -2.94755,-1.03809 -3.22001,-1.23846 -0.27246,-0.20042 -1.72149,-0.75771 -3.22001,-1.23847 -1.49857,-0.4808 -2.94755,-1.022 -3.22001,-1.20268 -0.47831,-0.31712 -2.17023,-0.99576 -9.28533,-3.72431 -6.35497,-2.43698 -9.55279,-3.66665 -12.75936,-4.90619 -1.77103,-0.68462 -5.33781,-2.0532 -7.92618,-3.04123 -8.13805,-3.10643 -9.90733,-3.88906 -10.58637,-4.68295 -0.95352,-1.1147 -1.65011,-2.51482 -18.62343,-37.43052 -3.04635,-6.26665 -6.00797,-12.28559 -6.58143,-13.37544 -1.38232,-2.62729 -1.04887,-1.94956 -7.06817,-14.3662 -2.90578,-5.99418 -7.57949,-15.5799 -10.38595,-21.30161 -2.80646,-5.72172 -7.59514,-15.53036 -10.64149,-21.797 -3.04634,-6.26664 -6.00796,-12.28558 -6.58142,-13.37543 -1.37876,-2.62048 -1.03916,-1.93058 -7.07213,-14.3662 -2.908,-5.99418 -7.57731,-15.5799 -10.37633,-21.30161 -2.79897,-5.7217 -7.58583,-15.53035 -10.63752,-21.79699 -3.05158,-6.26664 -6.0176,-12.28558 -6.59106,-13.37543 -1.37876,-2.62043 -1.03916,-1.93058 -7.07213,-14.3662 -2.908,-5.99418 -7.63181,-15.69134 -10.49736,-21.5493 -2.86563,-5.85793 -7.50031,-15.33221 -10.29936,-21.05392 -2.79901,-5.72171 -8.2565,-16.8679 -12.12765,-24.76932 -6.60171,-13.47471 -9.92163,-20.25775 -22.54939,-46.07093 -2.79901,-5.72171 -8.2565,-16.8679 -12.12765,-24.76931 -3.8711,-7.90141 -9.32883,-19.04761 -12.12824,-24.76932 -2.79937,-5.72171 -7.54537,-15.4189 -10.54662,-21.5493 -3.00129,-6.13041 -7.40468,-15.13651 -9.78542,-20.01357 -2.38067,-4.87706 -4.32853,-9.34283 -4.32853,-9.92393 0,-0.58111 11.63853,-27.01989 25.86337,-58.75285 19.05168,-42.50061 26.23997,-58.0497 27.29308,-59.03811 1.22472,-1.1495 1.62709,-1.27252 2.8071,-0.85829 0.75759,0.26595 1.61032,0.98123 1.89491,1.58951 0.28459,0.60828 1.10618,2.2206 1.8258,3.58291 0.71954,1.36231 1.8556,3.59155 2.52453,4.95386 0.66893,1.36231 1.56173,3.1457 1.98412,3.96309 0.42231,0.81739 1.36128,2.69621 2.08657,4.17516 0.72528,1.47895 1.50383,3.03941 1.73012,3.4677 0.22629,0.42829 5.68284,11.47905 12.12567,24.55725 6.44292,13.0782 12.18631,24.67024 12.76321,25.76009 1.1214,2.11862 1.59126,3.05115 3.49454,6.9354 0.6675,1.36232 1.56379,3.14571 1.99169,3.96309 0.42797,0.81739 6.82293,13.74697 14.21101,28.73241 7.38807,14.98543 13.90549,28.13794 14.48303,29.22779 1.12639,2.12529 1.4277,2.72269 3.87281,7.67849 0.87374,1.771 1.76445,3.5544 1.97929,3.96309 0.2148,0.40869 6.43499,13.00389 13.82258,27.98932 7.38755,14.98544 13.60988,27.58064 13.8273,27.98933 0.21749,0.40869 1.12107,2.19208 2.00797,3.96309 0.88694,1.77101 2.18513,4.33463 2.88494,5.69694 1.67702,3.2647 0.27056,0.42449 15.45426,31.20934 7.39109,14.98544 13.61647,27.58062 13.83416,27.98933 0.21766,0.40868 1.11066,2.19207 1.9844,3.96309 2.41146,4.8876 2.73865,5.53751 3.8658,7.67849 0.57377,1.08985 7.08798,14.24236 14.4761,29.22779 7.38807,14.98544 13.78612,27.91502 14.2179,28.73241 0.43178,0.81738 1.33128,2.60077 1.99874,3.96309 1.86741,3.8111 2.36256,4.79569 3.48756,6.9354 0.57303,1.08985 6.31717,12.68189 12.76472,25.76008 6.44755,13.0782 12.19257,24.67024 12.76662,25.76009 1.40825,2.67354 0.40174,0.64332 13.5074,27.24624 6.44288,13.0782 12.18631,24.67024 12.76317,25.76009 1.1214,2.11859 1.5913,3.0511 3.49458,6.93541 0.66746,1.36231 1.56375,3.1457 1.99169,3.96309 0.42797,0.81738 6.82289,13.74697 14.21101,28.73242 7.38807,14.98543 13.90549,28.13794 14.48303,29.22779 1.12639,2.12528 1.4277,2.72268 3.87281,7.67849 0.87374,1.77098 1.76528,3.55437 1.98115,3.96309 3.96218,7.50177 22.83204,46.39518 23.05829,47.52637 0.24171,1.20854 0.0644,1.8233 -0.78758,2.73009 -0.60469,0.64372 -1.48081,1.27009 -1.94679,1.39196 -0.46602,0.12186 -3.06625,-0.65534 -5.77831,-1.72724 z"
       id="path4147"
       inkscape:connector-curvature="0"
       inkscape:export-xdpi="180.201"
       inkscape:export-ydpi="180.201" />
    <path
       style="fill:#000000"
       d="m 998.68886,1025.3487 c -6.2062,-2.4936 -15.1404,-6.2095 -16.8431,-7.0053 -0.545,-0.2547 -3.443,-1.4461 -6.44007,-2.6477 -13.00503,-5.2139 -21.86761,-8.7969 -22.78776,-9.2126 -3.3445,-1.5109 -10.11623,-4.3343 -15.52933,-6.4747 -3.44722,-1.36314 -6.71352,-2.68804 -7.25844,-2.94433 -0.54493,-0.25625 -2.99709,-1.26502 -5.44925,-2.24164 -2.45217,-0.97667 -4.90433,-1.9785 -5.44925,-2.22627 -0.54493,-0.24781 -3.22001,-1.36639 -5.94464,-2.48577 -2.72462,-1.11933 -5.39971,-2.23526 -5.94463,-2.47986 -0.54493,-0.24461 -2.99709,-1.24382 -5.44925,-2.22044 -2.45216,-0.97667 -4.90433,-1.98321 -5.44925,-2.23673 -0.54493,-0.25356 -4.00023,-1.67679 -7.67849,-3.16275 -3.67822,-1.486 -8.91695,-3.63134 -11.64158,-4.7674 -6.87711,-2.86753 -13.9555,-5.75456 -23.53085,-9.59725 -4.49561,-1.8042 -8.51509,-3.47096 -8.93209,-3.70387 -0.41707,-0.23299 -3.09216,-1.35102 -5.94463,-2.48462 -2.85256,-1.13352 -5.63227,-2.26903 -6.17719,-2.5233 -0.54493,-0.25427 -2.99709,-1.26141 -5.44925,-2.23803 -2.45216,-0.97667 -4.90433,-1.9842 -5.44925,-2.23895 -0.54493,-0.25475 -3.44294,-1.44177 -6.44002,-2.63783 -5.29636,-2.11364 -14.34488,-5.86696 -16.34775,-6.78105 -0.54493,-0.24876 -4.11171,-1.71043 -7.92618,-3.24831 -3.81448,-1.53783 -9.6105,-3.90459 -12.88004,-5.25953 -9.07726,-3.76161 -13.14676,-5.42559 -22.04469,-9.01417 -4.49562,-1.81311 -8.61973,-3.50365 -9.16465,-3.75673 -0.54493,-0.25309 -2.99709,-1.25492 -5.44925,-2.22627 -2.45216,-0.97135 -4.7997,-1.95364 -5.2167,-2.18283 -0.41707,-0.22919 -3.09216,-1.34416 -5.94463,-2.47776 -2.85255,-1.13353 -5.63227,-2.27339 -6.17719,-2.53301 -0.54493,-0.25958 -3.44293,-1.45192 -6.44002,-2.64969 -10.24586,-4.09446 -14.36648,-5.78595 -15.85236,-6.50731 -0.81738,-0.39682 -3.93832,-1.70603 -6.9354,-2.9093 -6.10281,-2.45026 -16.33229,-6.62926 -25.2647,-10.32136 -3.26955,-1.35141 -8.95409,-3.67069 -12.63235,-5.154 -3.67823,-1.48326 -7.13357,-2.90573 -7.67849,-3.16088 -0.54493,-0.25522 -2.99709,-1.26311 -5.44925,-2.23974 -2.45216,-0.97666 -4.90433,-1.97647 -5.44925,-2.22179 -0.54493,-0.24531 -3.22001,-1.36001 -5.94464,-2.47705 -2.72462,-1.11707 -5.39971,-2.23506 -5.94463,-2.48442 -0.54493,-0.24932 -2.99709,-1.25245 -5.44925,-2.22908 -2.45216,-0.97666 -4.90432,-1.9842 -5.44925,-2.23895 -0.54492,-0.25474 -3.44293,-1.44312 -6.44002,-2.64088 -10.24586,-4.09447 -14.36648,-5.78595 -15.85236,-6.50732 -0.81739,-0.39682 -3.93832,-1.70591 -6.93541,-2.90906 -14.49163,-5.81774 -21.88482,-8.80757 -22.78777,-9.2155 -3.34449,-1.51096 -10.11622,-4.33435 -15.52933,-6.47477 -3.44721,-1.36311 -6.71351,-2.69237 -7.25844,-2.95401 -0.54492,-0.26157 -3.44293,-1.45228 -6.44002,-2.646 -5.61974,-2.23823 -14.60117,-5.96255 -16.34775,-6.77886 -0.54492,-0.25471 -3.44293,-1.44618 -6.44002,-2.64779 -15.16465,-6.07969 -21.93551,-8.83705 -23.28316,-9.48181 -1.83459,-0.87766 -9.17946,-3.90582 -16.10005,-6.63778 -2.86084,-1.12932 -5.6474,-2.26134 -6.19233,-2.51561 -0.54492,-0.25427 -2.99709,-1.26141 -5.44925,-2.23804 -2.45216,-0.97666 -4.90432,-1.97849 -5.44925,-2.22626 -0.54492,-0.24781 -3.22001,-1.3664 -5.94463,-2.48577 -2.72463,-1.11934 -5.39971,-2.23526 -5.94464,-2.47986 -0.54492,-0.24461 -2.99709,-1.24382 -5.44925,-2.22044 -2.45216,-0.97667 -4.90432,-1.98195 -5.44925,-2.234 -0.54492,-0.25205 -4.33463,-1.82457 -8.42156,-3.49453 -4.08694,-1.66993 -9.21419,-3.76803 -11.39389,-4.66246 -12.06832,-4.9522 -15.59753,-6.38822 -23.03546,-9.37314 -4.49561,-1.8042 -8.5151,-3.47096 -8.93213,-3.70387 -0.41704,-0.23299 -3.09212,-1.35102 -5.94464,-2.48462 -2.85251,-1.13352 -5.63222,-2.26903 -6.17715,-2.5233 -0.54492,-0.25427 -2.99708,-1.26529 -5.44925,-2.24671 -2.45216,-0.98142 -5.12724,-2.07884 -5.94463,-2.43865 -0.81739,-0.35985 -3.60392,-1.49274 -6.19233,-2.51755 -2.58837,-1.02482 -5.04054,-2.04968 -5.44925,-2.27739 -0.40868,-0.22776 -2.7494,-1.20875 -5.20156,-2.17994 -2.45216,-0.97128 -4.90432,-1.97433 -5.44925,-2.22908 -0.54492,-0.25475 -3.44293,-1.44312 -6.44002,-2.64089 -10.2459,-4.09446 -14.36648,-5.78595 -15.85236,-6.50731 -0.81739,-0.39683 -3.93832,-1.70591 -6.93541,-2.90907 -14.34056,-5.7571 -21.88351,-8.80678 -22.78777,-9.21339 -2.93696,-1.32066 -12.05726,-5.11774 -16.59544,-6.90917 -2.86083,-1.12933 -5.6474,-2.26134 -6.19232,-2.51561 -0.54493,-0.25428 -2.99709,-1.26142 -5.44925,-2.23806 -2.45217,-0.97666 -4.90433,-1.97647 -5.44925,-2.22178 -0.54493,-0.24532 -3.22001,-1.36002 -5.94464,-2.47705 -2.72462,-1.11708 -5.39971,-2.23943 -5.94463,-2.4941 -0.54493,-0.2547 -3.44294,-1.44728 -6.44003,-2.65011 -2.99708,-1.20288 -7.90141,-3.19025 -10.89849,-4.41631 -2.99709,-1.2261 -7.90142,-3.22945 -10.8985,-4.4519 -14.06953,-5.73879 -16.67819,-7.14395 -17.23814,-9.28528 -0.14057,-0.5374 1.20653,-3.76538 3.23828,-7.75977 1.91342,-3.76177 3.79339,-7.50836 4.17769,-8.32574 0.38431,-0.81739 1.04824,-2.15493 1.47538,-2.97232 0.42711,-0.81739 1.28599,-2.48934 1.90855,-3.7154 0.8762,-1.72553 29.09221,-58.25402 36.10149,-72.3264 0.74637,-1.49856 1.70263,-3.3934 2.12497,-4.21078 0.42231,-0.81739 1.314,-2.60078 1.98155,-3.9631 0.6675,-1.36231 1.5592,-3.1457 1.98154,-3.96309 0.42231,-0.81738 1.27727,-2.48933 1.89983,-3.71539 0.8762,-1.72553 29.09221,-58.25402 36.10149,-72.3264 0.74637,-1.49856 1.70262,-3.3934 2.12497,-4.21078 0.42231,-0.81739 1.314,-2.60078 1.98155,-3.96309 0.6675,-1.36232 1.55919,-3.14571 1.98154,-3.96309 0.42231,-0.81739 1.27715,-2.48934 1.89959,-3.7154 0.86506,-1.70397 21.48272,-43.01904 32.13793,-64.40023 0.7468,-1.49854 1.70333,-3.39339 2.12568,-4.21078 0.42231,-0.81739 1.314,-2.60078 1.98154,-3.96309 0.66751,-1.36231 1.5592,-3.1457 1.98155,-3.96309 0.42231,-0.81739 1.27726,-2.48932 1.89983,-3.7154 0.8762,-1.72555 29.09221,-58.25402 36.10149,-72.3264 0.74637,-1.49854 1.70262,-3.39339 2.12497,-4.21078 0.42231,-0.81739 1.314,-2.60078 1.98155,-3.96309 0.6675,-1.36231 1.55919,-3.1457 1.98154,-3.96309 0.42231,-0.81739 1.27727,-2.48932 1.89983,-3.7154 0.8762,-1.72555 29.09221,-58.25401 36.10149,-72.3264 0.74637,-1.49854 1.70262,-3.39339 2.12497,-4.21078 0.42231,-0.81739 1.27727,-2.48932 1.89983,-3.7154 0.8762,-1.72555 29.09221,-58.25402 36.10149,-72.3264 0.74637,-1.49854 1.70262,-3.39339 2.12497,-4.21078 0.42231,-0.81739 1.314,-2.60078 1.98155,-3.96309 0.6675,-1.36231 1.55919,-3.1457 1.98154,-3.96309 0.42231,-0.81739 1.27726,-2.48932 1.89983,-3.7154 0.8762,-1.72555 29.09221,-58.254011 36.10149,-72.326398 0.74637,-1.498544 1.70262,-3.393396 2.12497,-4.210784 0.42231,-0.817387 1.314,-2.600778 1.98154,-3.96309 0.66751,-1.362312 1.5592,-3.145703 1.98155,-3.96309 1.23446,-2.389232 2.70572,-5.326227 8.05625,-16.082363 2.77357,-5.575751 5.28074,-10.424347 5.57147,-10.774652 0.29073,-0.35031 1.05034,-0.636924 1.68804,-0.636924 0.97464,0 1.5651,0.809195 3.70517,5.077709 1.40016,2.792742 2.74373,5.320746 2.98567,5.617788 0.24195,0.297041 1.63724,2.860665 3.10065,5.696942 7.39512,14.332901 9.72027,18.746907 11.09225,21.057662 0.82464,1.388953 1.65741,3.023105 1.85045,3.631451 0.19312,0.608347 1.54287,3.210571 2.99958,5.782728 1.45667,2.572156 2.79925,5.151756 2.98361,5.732455 0.18429,0.580692 0.99981,2.183219 1.81232,3.561178 0.81244,1.377948 3.04734,5.523838 4.96647,9.213078 5.5832,10.73285 9.25936,17.77703 11.77363,22.56008 2.456,4.67238 6.09721,11.65006 11.50374,22.04469 1.77142,3.40578 3.91981,7.37248 4.77414,8.81491 0.85436,1.44241 1.5609,2.77995 1.57013,2.97231 0.01,0.19235 0.43293,1.22961 0.94144,2.30501 0.61011,1.29029 0.7896,2.30118 0.52768,2.97232 -0.58368,1.49554 -5.75223,12.83945 -6.3526,13.9426 -0.28296,0.51989 -1.22685,2.50573 -2.09754,4.41296 -2.47689,5.4254 -3.69511,8.06144 -6.06682,13.12774 -1.21171,2.58839 -2.92286,6.26664 -3.80254,8.17387 -1.73921,3.7707 -3.18803,6.87365 -6.59229,14.11851 -1.21627,2.5884 -2.9353,6.26664 -3.82018,8.17388 -0.8848,1.90724 -2.91877,6.19598 -4.51986,9.53055 -1.60113,3.33457 -2.91113,6.16943 -2.91113,6.2997 0,0.13027 -1.13562,2.64071 -2.52366,5.57874 -1.38799,2.93803 -3.15057,6.67941 -3.91684,8.31419 -4.10647,8.76088 -5.50604,11.75535 -7.17771,15.35697 -2.69026,5.79602 -4.29456,9.21081 -7.39291,15.73565 -1.52206,3.20536 -2.76742,5.93297 -2.76742,6.06135 0,0.12838 -1.20244,2.74453 -2.67212,5.81365 -2.46286,5.14327 -3.78625,7.95507 -8.57192,18.21258 -1.81185,3.88354 -3.19509,6.84058 -6.48837,13.87082 -1.86571,3.98275 -3.90369,8.36388 -7.02831,15.10928 -0.75726,1.63478 -2.62947,5.58519 -4.16045,8.7787 -1.53094,3.1935 -2.78355,5.92111 -2.78355,6.06134 0,0.14024 -1.20245,2.76608 -2.67212,5.83521 -2.46286,5.14326 -3.78626,7.95507 -8.57193,18.21258 -3.61738,7.75355 -4.58985,9.82393 -7.28487,15.50967 -1.525,3.2173 -2.7727,5.93718 -2.7727,6.04416 0,0.21471 -3.01773,6.64536 -7.49242,15.96604 -1.60089,3.33457 -2.91069,6.17363 -2.91069,6.30904 0,0.13541 -1.20244,2.7573 -2.67211,5.82643 -3.18946,6.66062 -8.08308,17.1148 -11.42393,24.40491 -1.25118,2.73021 -3.0056,6.48967 -6.35755,13.62312 -1.21623,2.58838 -2.9353,6.26664 -3.82014,8.17388 -0.8848,1.90724 -2.91877,6.19598 -4.51986,9.53052 -1.60113,3.33458 -2.91113,6.16594 -2.91113,6.29188 0,0.21421 -2.37207,5.35093 -6.19043,13.40539 -0.90418,1.90724 -2.57838,5.47402 -3.72051,7.92618 -4.11281,8.8302 -5.81179,12.46709 -10.2984,22.04469 -1.0849,2.31591 -2.80028,5.99418 -3.81202,8.17388 -2.69019,5.79602 -4.29452,9.21081 -7.39287,15.73565 -1.5221,3.20534 -2.76742,5.93294 -2.76742,6.06134 0,0.12841 -1.20244,2.74452 -2.67212,5.81366 -2.46286,5.14322 -3.78625,7.95503 -8.57192,18.21258 -3.61739,7.75351 -4.58986,9.82395 -7.28488,15.50964 -1.52499,3.21735 -2.77269,5.93722 -2.77269,6.04414 0,0.10701 -0.98249,2.26757 -2.18335,4.80121 -1.20086,2.53364 -2.52623,5.38687 -2.94529,6.34051 -0.4191,0.9536 -1.16158,2.34924 -1.65003,3.10143 -1.47855,2.277 -0.90434,2.71896 8.76021,6.74237 1.3761,0.5729 7.99843,3.24767 20.31084,8.2036 4.49565,1.80958 8.61972,3.50154 9.16465,3.75998 0.54492,0.25839 3.44293,1.45291 6.44002,2.65452 14.37508,5.76312 21.88382,8.8061 22.78777,9.23475 0.54492,0.25839 3.44293,1.45291 6.44002,2.65452 14.37508,5.76312 21.88383,8.8061 22.78777,9.23475 0.54492,0.25839 3.44293,1.45291 6.44002,2.65452 14.12168,5.66159 21.88145,8.80456 22.78777,9.2298 1.57925,0.74102 15.27664,6.28114 22.04469,8.91632 7.67096,2.98674 12.32901,4.84931 13.62312,5.44742 0.54493,0.25178 2.99709,1.25694 5.44925,2.2336 2.45216,0.97662 4.90432,1.98305 5.44925,2.23645 0.54492,0.25344 4.66904,1.92234 9.16465,3.70878 4.49565,1.7864 8.61972,3.45506 9.16464,3.70814 0.54493,0.25309 2.99709,1.25924 5.44925,2.2359 2.45216,0.97663 4.90433,1.98307 5.44925,2.23647 0.54493,0.25344 4.66904,1.92233 9.16465,3.70878 4.49565,1.7864 8.61972,3.45506 9.16464,3.70814 0.54493,0.25308 2.99709,1.25923 5.44925,2.2359 2.45216,0.97662 4.90433,1.98305 5.44925,2.23645 0.54493,0.25344 4.66904,1.92234 9.16465,3.70878 4.49565,1.7864 8.61972,3.45506 9.16464,3.70814 0.54493,0.25309 2.99709,1.25923 5.44925,2.2359 2.45217,0.97662 4.90433,1.98305 5.44925,2.23645 0.54493,0.25344 4.66904,1.92234 9.16465,3.70878 4.49565,1.7864 8.61972,3.45506 9.16465,3.70814 0.54492,0.25309 2.99708,1.25924 5.44924,2.2359 2.45217,0.97662 4.90433,1.98305 5.44925,2.23645 0.54493,0.25344 4.66904,1.92234 9.16465,3.70878 4.49565,1.7864 8.61972,3.45506 9.16465,3.70814 0.54492,0.25309 2.99708,1.25924 5.44925,2.2359 2.45216,0.97662 4.90432,1.98305 5.44924,2.23645 0.54493,0.25344 4.66904,1.92234 9.16465,3.70878 4.49565,1.7864 8.61972,3.45506 9.16464,3.70815 0.54492,0.25308 2.99709,1.25923 5.44925,2.23589 2.45216,0.97663 4.90432,1.98305 5.44925,2.23645 0.54492,0.25344 4.66903,1.92234 9.16464,3.70878 4.49565,1.7864 8.61973,3.45506 9.16465,3.70815 0.54493,0.25308 2.99709,1.26315 5.44925,2.24453 2.45216,0.98142 5.12725,2.07991 5.94464,2.44103 0.81738,0.36115 4.71857,1.91758 8.66926,3.45878 3.95072,1.54121 7.74043,3.03926 8.42156,3.32896 0.68118,0.2897 4.80525,1.95876 9.16465,3.70902 4.3594,1.75018 8.37203,3.39363 8.91695,3.65206 0.54493,0.2584 3.44294,1.45291 6.44002,2.65452 14.37508,5.76313 21.88383,8.80611 22.78777,9.23476 0.54493,0.25839 3.44294,1.4529 6.44002,2.65451 14.37508,5.76313 21.88383,8.80611 22.78777,9.23476 0.54493,0.25839 3.44294,1.4529 6.44003,2.65451 14.37508,5.76313 21.88382,8.80611 22.78776,9.23476 0.54493,0.25839 3.44294,1.45291 6.44003,2.65451 14.37508,5.76313 21.88382,8.80611 22.78777,9.23476 0.54492,0.25839 3.44293,1.45291 6.44002,2.65452 13.5498,5.43228 21.87511,8.80079 22.78777,9.22013 0.54492,0.25042 2.43979,1.04582 4.21078,1.76761 1.77103,0.7218 3.49144,1.53332 3.82319,1.80341 0.76607,0.62351 4.84349,7.69596 5.32196,9.23103 0.19819,0.63587 1.48124,3.08804 2.85116,5.44924 1.36997,2.36113 2.87959,5.1892 3.35472,6.28455 0.47517,1.09536 2.20926,4.36135 3.85367,7.25777 1.64433,2.89642 3.14903,5.76812 3.3437,6.38157 0.19471,0.61348 1.02965,2.25178 1.85544,3.64073 1.46955,2.47182 4.22307,7.68185 10.62465,20.10353 1.75291,3.40132 3.37366,6.41077 3.60165,6.68771 0.38323,0.46547 2.23729,3.99198 10.03163,19.08046 1.6186,3.1333 3.1278,5.91987 3.3538,6.19233 0.226,0.27246 1.7352,3.05899 3.3538,6.19233 7.713,14.93098 9.6468,18.61396 10.0141,19.07237 0.2184,0.27246 2.0155,3.61632 3.9936,7.43079 1.9782,3.81448 4.75394,9.16469 6.16854,11.88929 1.4144,2.7246 3.2304,6.0685 4.0355,7.4308 2.7014,4.5713 4.6845,9.1915 4.9663,11.571 0.4015,3.3898 -0.3981,4.0386 -4.9494,4.0158 -3.0743,-0.015 -4.3616,-0.3415 -9.50084,-2.4064 z"
       id="path4160"
       inkscape:connector-curvature="0"
       inkscape:export-xdpi="180.201"
       inkscape:export-ydpi="180.201" />
  </g>
</svg>
