<?xml version="1.0" encoding="UTF-8" standalone="no"?>
<!-- Created with Inkscape (http://www.inkscape.org/) -->

<svg
   xmlns:dc="http://purl.org/dc/elements/1.1/"
   xmlns:cc="http://creativecommons.org/ns#"
   xmlns:rdf="http://www.w3.org/1999/02/22-rdf-syntax-ns#"
   xmlns:svg="http://www.w3.org/2000/svg"
   xmlns="http://www.w3.org/2000/svg"
   xmlns:sodipodi="http://sodipodi.sourceforge.net/DTD/sodipodi-0.dtd"
   xmlns:inkscape="http://www.inkscape.org/namespaces/inkscape"
   width="210mm"
   height="297mm"
   viewBox="0 0 744.09448819 1052.3622047"
   id="svg2"
   version="1.1"
   inkscape:version="0.91 r13725"
   sodipodi:docname="AL_red.svg">
  <defs
     id="defs4" />
  <sodipodi:namedview
     id="base"
     pagecolor="#ffffff"
     bordercolor="#666666"
     borderopacity="1.0"
     inkscape:pageopacity="0.0"
     inkscape:pageshadow="2"
     inkscape:zoom="0.175"
     inkscape:cx="76.428686"
     inkscape:cy="504.35245"
     inkscape:document-units="px"
     inkscape:current-layer="layer1"
     showgrid="false"
     inkscape:window-width="1454"
     inkscape:window-height="841"
     inkscape:window-x="74"
     inkscape:window-y="-8"
     inkscape:window-maximized="1" />
  <metadata
     id="metadata7">
    <rdf:RDF>
      <cc:Work
         rdf:about="">
        <dc:format>image/svg+xml</dc:format>
        <dc:type
           rdf:resource="http://purl.org/dc/dcmitype/StillImage" />
        <dc:title />
      </cc:Work>
    </rdf:RDF>
  </metadata>
  <g
     inkscape:label="Layer 1"
     inkscape:groupmode="layer"
     id="layer1">
    <path
       style="fill:#000000"
       d="m -517.51628,1777.2305 c -182.99071,-1.9305 -170.29961,-1.5209 -174.40791,-5.6298 -1.7676,-1.7679 -3.2964,-4.3102 -3.3973,-5.6497 -0.1009,-1.3394 3.6436,-10.2993 8.321,-19.9107 4.6774,-9.6115 12.0517,-24.7878 16.3874,-33.7253 4.3356,-8.9375 13.4809,-27.7813 20.3229,-41.875 6.842,-14.0938 16.2482,-33.5 20.9026,-43.125 4.6544,-9.625 13.9357,-28.75 20.625,-42.5 6.68931,-13.75 15.96271,-32.875 20.60761,-42.5 4.6448,-9.625 13.65,-28.1875 20.0116,-41.25 6.3615,-13.0625 15.6386,-32.1875 20.6157,-42.5 4.9771,-10.3125 13.9763,-28.875 19.9983,-41.25 6.022,-12.375 15.0302,-30.9375 20.0182,-41.25 4.9881,-10.3125 14.1287,-29.1563 20.3124,-41.875 26.2776,-54.0477 32.3372,-66.5355 40.3359,-83.125 4.6407,-9.625 13.9143,-28.75 20.608,-42.5 6.6937,-13.75 15.9736,-32.875 20.6219,-42.5 4.6484,-9.625 13.7846,-28.4688 20.3027,-41.875 6.5182,-13.4063 15.7873,-32.5313 20.5981,-42.5 27.8784,-57.7684 36.0398,-73.2547 39.766,-75.4558 5.8816,-3.4744 11.9944,-2.821 24.9888,2.6709 6.5099,2.7512 17.7424,7.3339 24.9611,10.1835 7.2188,2.8496 14.25,5.717 15.625,6.3721 1.375,0.655 8.6875,3.6716 16.25,6.7036 36.4389,14.6088 55.2206,22.2213 57.5,23.3053 1.375,0.654 21.625,8.8034 45,18.1099 23.375,9.3065 43.624995,17.4612 44.999995,18.1216 1.375,0.6604 8.6875,3.6812 16.25,6.7132 33.1948,13.3082 55.1839,22.1998 57.5,23.2508 1.375,0.624 7.3626,3.1761 13.3058001,5.6714 11.1584,4.685 16.0657,8.4938 16.3838,12.7165 0.101,1.3406 -2.9569,8.8667 -6.7952,16.7247 -3.8384,7.858 -10.6374,21.881 -15.1091001,31.1623 -4.4716,9.2812 -12.0705,25.0312 -16.8865,35 -4.816,9.9687 -12.2604,25.4375 -16.5432,34.375 -8.1178,16.9407 -16.2359,33.7726 -34.0628,70.625 -5.82,12.0312 -14.1014,29.1875 -18.403195,38.125 -4.3017,8.9375 -11.9009,24.6875 -16.887,35 -4.9861,10.3125 -12.2954,25.5 -16.2429,33.75 -3.9474,8.25 -11.3902,23.7187 -16.5394,34.375 -8.9411,18.5037 -15.0113,31.077 -33.191,68.75 -4.4788,9.2812 -11.6459,24.1875 -15.9269,33.125 -4.281,8.9375 -11.3254,23.5625 -15.6542,32.5 -9.292,19.1847 -28.0934,58.1035 -37.4398,77.5 -3.6441,7.5625 -10.8335,22.4687 -15.9764,33.125 -5.1429,10.6562 -13.0772,27.25 -17.6319,36.875 -4.5546,9.625 -8.9943,18.9062 -9.8659,20.625 -0.8717,1.7187 -3.5422,4.1085 -5.9345,5.3105 -5.1311,2.5782 5.3071,2.5671 -216.2247,0.23 z M 1478.0508,1230.1553 c -6.8431,-2.7045 -15.2546,-5.9593 -18.6921,-7.2328 -3.4375,-1.2737 -10.75,-4.0783 -16.25,-6.2325 -5.5,-2.1543 -12.8125,-4.9668 -16.25,-6.25 -3.4375,-1.2833 -10.75,-4.0863 -16.25,-6.229 -5.5,-2.1428 -13.375,-5.1914 -17.5,-6.7749 -37.5665,-14.4209 -86.9714,-33.6371 -90,-35.006 -2.0625,-0.9323 -6,-2.3971 -8.75,-3.2554 -2.75,-0.8584 -5.5625,-1.9754 -6.25,-2.4822 -0.6875,-0.507 -4.3438,-1.9144 -8.125,-3.1275 -3.7813,-1.2132 -7.4375,-2.6194 -8.125,-3.125 -0.6875,-0.5057 -4.3438,-1.9119 -8.125,-3.125 -3.7813,-1.2132 -7.4375,-2.6194 -8.125,-3.125 -0.6875,-0.5057 -4.3438,-1.9119 -8.125,-3.125 -3.7813,-1.2132 -7.4375,-2.5788 -8.125,-3.0347 -1.2069,-0.8002 -5.4761,-2.5126 -23.4295,-9.3975 -16.0354,-6.1492 -24.1044,-9.252 -32.1955,-12.3797 -4.4688,-1.7275 -13.4688,-5.1808 -20,-7.6739 -20.5346,-7.8384 -24.999,-9.8132 -26.7124,-11.8164 -2.406,-2.8127 -4.1637,-6.3456 -46.9922,-94.4478 -7.6868,-15.81254 -15.1598,-31.00004 -16.6068,-33.75004 -3.488,-6.6294 -2.6466,-4.9193 -17.835,-36.25 -7.3321,-15.125 -19.1252,-39.3125 -26.2067,-53.75 -7.0815,-14.4375 -19.1647,-39.1875 -26.8515,-55 -7.68678,-15.8125 -15.15978,-31 -16.60678,-33.75 -3.479,-6.6122 -2.6221,-4.8714 -17.845,-36.25 -7.3377,-15.125 -19.1197,-39.3125 -26.1824,-53.75 -7.0626,-14.43747 -19.1412,-39.18747 -26.8415,-54.99997 -7.7,-15.8125 -15.1841,-31 -16.6311,-33.75 -3.479,-6.6121 -2.6221,-4.8714 -17.845,-36.25 -7.3377,-15.125 -19.2572,-39.5937 -26.4878,-54.375 -7.2308,-14.7812 -18.9254,-38.6875 -25.9882,-53.125 -7.0627,-14.4375 -20.8335,-42.5625 -30.6015,-62.5 -16.658,-34.00053 -25.0351,-51.11606 -56.8985,-116.25002 -7.0627,-14.4375 -20.8335,-42.5625 -30.6015,-62.5 -9.7679,-19.9375 -23.5393,-48.0625 -30.603,-62.5 -7.0636,-14.4375 -19.0391,-38.90625 -26.6121,-54.375 -7.5731,-15.468753 -18.6841,-38.193713 -24.6914,-50.499913 -6.0071,-12.30619 -10.9221,-23.5746 -10.9221,-25.04089 0,-1.46629 29.3673,-68.17884 65.2606,-148.250087 48.0728,-107.24108 66.2109,-146.47584 68.8682,-148.96989 3.0903,-2.9005 4.1056,-3.21091 7.0831,-2.16569 1.9116,0.67105 4.0633,2.47591 4.7814,4.01078 0.7181,1.53487 2.7912,5.60319 4.607,9.04069 1.8156,3.4375 4.6822,9.0625 6.3701,12.5 1.6879,3.4375 3.9407,7.9375 5.0065,10 1.0656,2.0625 3.4349,6.8033 5.265,10.53511 1.8301,3.7318 3.7946,7.6693 4.3656,8.75 0.571,1.08069 14.3394,28.96489 30.5965,61.96489 16.2573,33 30.7495,62.249997 32.2052,64.999997 2.8296,5.34589 4.0152,7.69892 8.8177,17.5 1.6843,3.4375 3.9459,7.9375 5.0256,10 1.0799,2.0625 17.2162,34.6875 35.8584,72.5 18.6422,37.8125 35.0875,71 36.5448,73.75 2.8422,5.36272 3.6025,6.87012 9.7722,19.375003 2.2047,4.46875 4.4522,8.96875 4.9943,10 0.542,1.03125 16.2373,32.8125 34.8783,70.625 18.64088,37.8125 34.34158,69.59375 34.89018,70.625 0.5488,1.03125 2.8288,5.53125 5.0667,10 2.238,4.46875 5.5137,10.9375 7.2795,14.375 4.2316,8.23776 0.6827,1.0711 38.9955,78.75 18.6498,37.81252 34.3582,69.59372 34.9075,70.62502 0.5492,1.0312 2.8025,5.5312 5.0072,10 6.0848,12.3328 6.9104,13.9727 9.7545,19.375 1.4478,2.75 17.885,35.9375 36.5273,73.75 18.6422,37.8125 34.7863,70.4375 35.8758,72.5 1.0895,2.0625 3.3592,6.5625 5.0434,10 4.712,9.6165 5.9614,12.1009 8.8001,17.5 1.4459,2.75 15.94,32 32.209,64.99997 16.269,33 30.7653,62.25 32.2138,65 3.5534,6.7461 1.0137,1.6233 34.083,68.75 16.2572,33 30.7495,62.25 32.2051,65 2.8296,5.3458 4.0153,7.6988 8.8178,17.5 1.6842,3.4375 3.9458,7.9375 5.0256,10 1.0799,2.0625 17.2161,34.6875 35.8584,72.50004 18.6422,37.8125 35.0875,71 36.5448,73.75 2.8422,5.3627 3.6025,6.8701 9.7722,19.375 2.2047,4.4687 4.4543,8.9687 4.999,10 9.9977,18.9291 57.6117,117.0682 58.1826,119.9225 0.6099,3.0495 0.1624,4.6007 -1.9873,6.8888 -1.5258,1.6243 -3.7365,3.2048 -4.9123,3.5123 -1.1759,0.3075 -7.737,-1.6536 -14.5803,-4.3583 z"
       id="path4147"
       inkscape:connector-curvature="0"
       inkscape:export-xdpi="180.201"
       inkscape:export-ydpi="180.201" />
    <path
       style="fill:#800000"
       d="m 1747.9669,1770.7257 c -15.66,-6.292 -38.2035,-15.6683 -42.5,-17.6763 -1.375,-0.6427 -8.6875,-3.6491 -16.25,-6.6811 -32.8154,-13.1561 -55.1782,-22.1969 -57.5,-23.2458 -8.4391,-3.8126 -25.5261,-10.9368 -39.1849,-16.3377 -8.6983,-3.4395 -16.9401,-6.7826 -18.3151,-7.4293 -1.375,-0.6466 -7.5625,-3.192 -13.75,-5.6563 -6.1875,-2.4644 -12.375,-4.9923 -13.75,-5.6175 -1.375,-0.6253 -8.125,-3.4478 -15,-6.2723 -6.875,-2.8244 -13.625,-5.6402 -15,-6.2574 -1.375,-0.6172 -7.5625,-3.1385 -13.75,-5.6028 -6.1875,-2.4644 -12.375,-5.0042 -13.75,-5.6439 -1.375,-0.6398 -10.0937,-4.231 -19.375,-7.9805 -9.2812,-3.7496 -22.5,-9.1629 -29.375,-12.0295 -17.3529,-7.2356 -35.2137,-14.5204 -59.375,-24.2166 -11.3437,-4.5525 -21.486,-8.7582 -22.5382,-9.3459 -1.0524,-0.5879 -7.8024,-3.409 -15,-6.2694 -7.1978,-2.8602 -14.2118,-5.7254 -15.5868,-6.367 -1.375,-0.6416 -7.5625,-3.1829 -13.75,-5.6472 -6.1875,-2.4644 -12.375,-5.0067 -13.75,-5.6495 -1.375,-0.6428 -8.6875,-3.638 -16.25,-6.656 -13.3642,-5.3333 -36.1962,-14.804 -41.25,-17.1105 -1.375,-0.6277 -10.375,-4.3159 -20,-8.1964 -9.625,-3.8804 -24.25,-9.8524 -32.5,-13.2713 -22.9045,-9.4916 -33.173,-13.6903 -55.625,-22.7453 -11.3437,-4.575 -21.75,-8.8407 -23.125,-9.4793 -1.375,-0.6386 -7.5625,-3.1665 -13.75,-5.6175 -6.1875,-2.451 -12.111,-4.9296 -13.1632,-5.5079 -1.0524,-0.5783 -7.8024,-3.3917 -15,-6.2521 -7.1978,-2.8602 -14.2118,-5.7364 -15.5868,-6.3915 -1.375,-0.655 -8.6875,-3.6636 -16.25,-6.6859 -25.8532,-10.3315 -36.2507,-14.5996 -39.99998,-16.4198 -2.0625,-1.0013 -9.9375,-4.3048 -17.5,-7.341 -15.3991,-6.1827 -41.211,-16.7275 -63.75,-26.0437 -8.25,-3.41 -22.5937,-9.2622 -31.875,-13.005 -9.2812,-3.7427 -18,-7.332 -19.375,-7.9758 -1.375,-0.644 -7.5625,-3.1872 -13.75,-5.6515 -6.1875,-2.4644 -12.375,-4.9872 -13.75,-5.6062 -1.375,-0.619 -8.125,-3.4317 -15,-6.2503 -6.875,-2.8187 -13.625,-5.6397 -15,-6.2689 -1.375,-0.6291 -7.5625,-3.1603 -13.75,-5.6246 -6.1875,-2.4644 -12.375,-5.0067 -13.75,-5.6495 -1.375,-0.6428 -8.6875,-3.6414 -16.25,-6.6637 -25.8532,-10.3315 -36.2507,-14.5996 -40,-16.4198 -2.0625,-1.0013 -9.9375,-4.3045 -17.5,-7.3404 -36.5665,-14.6798 -55.2216,-22.224 -57.5,-23.2533 -8.4391,-3.8126 -25.5261,-10.9368 -39.1849,-16.3377 -8.6983,-3.4395 -16.9401,-6.7936 -18.3151,-7.4538 -1.375,-0.66 -8.6875,-3.6645 -16.25,-6.6766 -14.1802,-5.6477 -36.8429,-15.0452 -41.25,-17.105 -1.375,-0.6427 -8.6875,-3.6491 -16.25,-6.6811 -38.2647,-15.3408 -55.3495,-22.2984 -58.75,-23.9253 -4.6292,-2.2146 -23.1624,-9.8555 -40.625,-16.749 -7.2187,-2.8496 -14.25,-5.706 -15.625,-6.3476 -1.375,-0.6416 -7.5625,-3.1829 -13.75,-5.6472 -6.1875,-2.4644 -12.375,-4.9923 -13.75,-5.6175 -1.375,-0.6253 -8.125,-3.4478 -15,-6.2723 -6.875,-2.8244 -13.625,-5.6402 -15,-6.2574 -1.375,-0.6172 -7.5625,-3.1385 -13.75,-5.6028 -6.1875,-2.4644 -12.375,-5.001 -13.75,-5.637 -1.375,-0.636 -10.9375,-4.6039 -21.25,-8.8177 -10.3125,-4.2137 -23.25,-9.5078 -28.75,-11.7647 -30.4518,-12.4958 -39.357,-16.1193 -58.125,-23.6511 -11.3437,-4.5525 -21.486,-8.7582 -22.5383,-9.3459 -1.0523,-0.5879 -7.8023,-3.409 -15,-6.2694 -7.1977,-2.8602 -14.2117,-5.7254 -15.5867,-6.367 -1.375,-0.6416 -7.5625,-3.1927 -13.75,-5.6691 -6.1875,-2.4764 -12.9375,-5.2455 -15,-6.1534 -2.0625,-0.908 -9.0937,-3.7666 -15.625,-6.3525 -6.5312,-2.5859 -12.718705,-5.1719 -13.750005,-5.7465 -1.0312,-0.5747 -6.9375,-3.05 -13.125,-5.5006 -6.1875,-2.4508 -12.375,-4.9818 -13.75,-5.6246 -1.375,-0.6428 -8.6875,-3.6414 -16.25,-6.6637 -25.8533,-10.3315 -36.2507,-14.5996 -40,-16.4198 -2.0625,-1.0013 -9.9374999,-4.3045 -17.4999999,-7.3404 -36.1853001,-14.5268 -55.2183001,-22.222 -57.5000001,-23.248 -7.4108,-3.3324 -30.4239,-12.9135 -41.874995,-17.4338 -7.2187,-2.8496 -14.25,-5.706 -15.625,-6.3476 -1.375,-0.6416 -7.5625,-3.1829 -13.75,-5.64724 -6.1875,-2.4644 -12.375,-4.9872 -13.75,-5.6062 -1.375,-0.619 -8.125,-3.4317 -15,-6.2503 -6.875,-2.8187 -13.625,-5.6507 -15,-6.2933 -1.375,-0.6427 -8.6875,-3.6519 -16.25,-6.687 -7.5625,-3.0352 -19.9375,-8.0499 -27.5,-11.1436 -7.5625,-3.0938 -19.9375,-8.1488 -27.5,-11.2334 -35.5014,-14.4806 -42.0838,-18.0262 -43.4967,-23.4294 -0.3547,-1.356 3.0444,-9.5011 8.1711,-19.5801 4.8281,-9.492 9.5718,-18.9457 10.5415,-21.0082 0.9697,-2.0625 2.645,-5.4375 3.7228,-7.5 1.0777,-2.0625 3.2449,-6.2813 4.8158,-9.375 2.2109,-4.354 73.4079,-146.9914 91.0943,-182.50001 1.8833,-3.7813 4.2962,-8.5625 5.3619,-10.625 1.0656,-2.0625 3.3156,-6.5625 5,-10 1.6843,-3.4375 3.9343,-7.9375 5,-10 1.0656,-2.0625 3.2229,-6.2813 4.7938,-9.375 2.2109,-4.354 73.407895,-146.9914 91.094295,-182.5 1.8833,-3.7813 4.2962,-8.5625 5.3619,-10.625 1.0656,-2.0625 3.3156,-6.5625 5,-10 1.6843,-3.4375 3.9343,-7.9375 5,-10 1.0656,-2.0625 3.2226,-6.2813 4.7932,-9.375 2.1828,-4.2996 54.207,-108.54923 81.0931,-162.50002 1.8844,-3.78125 4.298,-8.5625 5.3637,-10.625 1.0656,-2.0625 3.3156,-6.5625 5,-10 1.6843,-3.4375 3.9343,-7.9375 5,-10 1.0656,-2.0625 3.2229,-6.28125 4.7938,-9.375 2.2109,-4.35405 73.407905,-146.991393 91.094305,-182.500003 1.8833,-3.78125 4.2962,-8.5625 5.3619,-10.625 1.0656,-2.0625 3.3156,-6.5625 5,-10 1.6843,-3.4375 3.9343,-7.9375 5,-9.9999997 1.0656,-2.0625 3.2229,-6.28125 4.7938,-9.375 2.2109,-4.35405 73.4079,-146.9913873 91.0943,-182.4999973 1.8833,-3.78125 4.2962,-8.5625 5.3619,-10.625 1.0656,-2.0625 3.2229,-6.28125 4.7938,-9.37501 2.2109,-4.35405 73.4079,-146.99139 91.0943,-182.5 1.8833,-3.78125 4.2962,-8.5625 5.3619,-10.625 1.0656,-2.0625 3.3156,-6.56249 5,-9.99999 1.6843,-3.4375 3.9343,-7.9375 5,-10 1.0656,-2.0625 3.2229,-6.28125 4.7938,-9.375 2.2109,-4.35405 73.4079,-146.99139 91.0943,-182.50001 1.8833,-3.78125 4.2962,-8.5625 5.3619,-10.625 1.0656,-2.0625 3.3156,-6.5625 5,-10 1.6843,-3.4375 3.9343,-7.9375 5,-10 3.1149,-6.02871 6.8273,-13.43958 20.3282,-40.58036 6.9985,-14.0692 13.3248,-26.30358 14.0584,-27.1875 0.7336,-0.88393 2.6503,-1.60714 4.2594,-1.60714 2.4593,0 3.9492,2.04183 9.3492,12.8125 3.533,7.04688 6.9232,13.42575 7.5337,14.17527 0.6105,0.74952 4.1312,7.21827 7.8238,14.375 18.66,36.16597 24.527,47.30376 27.9889,53.13445 2.0808,3.50472 4.1821,7.62815 4.6692,9.16318 0.4873,1.53503 3.8931,8.10118 7.5688,14.59146 3.6756,6.49028 7.0633,12.99934 7.5285,14.46461 0.465,1.46525 2.5228,5.50888 4.573,8.98586 2.05,3.47696 7.6893,13.93821 12.5318,23.24721 14.088,27.08203 23.364,44.85648 29.7082,56.92547 6.1972,11.78975 15.385,29.39641 29.0272,55.625 4.4698,8.59375 9.8908,18.60287 12.0465,22.24251 2.1558,3.63962 3.9386,7.01462 3.9619,7.49999 0.024,0.48536 1.0924,3.10266 2.3755,5.8162 1.5395,3.25575 1.9924,5.80652 1.3315,7.5 -1.4728,3.77367 -14.5145,32.39758 -16.0294,35.18114 -0.714,1.31183 -3.0957,6.32265 -5.2927,11.13515 -6.2499,13.6898 -9.3238,20.34129 -15.3083,33.125 -3.0575,6.53125 -7.3752,15.8125 -9.5949,20.625 -4.3885,9.51454 -8.0443,17.34415 -16.6342,35.625 -3.069,6.53125 -7.4066,15.8125 -9.6394,20.625 -2.2326,4.8125 -7.3649,15.63423 -11.4049,24.04828 -4.0401,8.41406 -7.3456,15.56722 -7.3456,15.89594 0,0.32871 -2.8655,6.66324 -6.3679,14.07673 -3.5023,7.41349 -7.9498,16.85406 -9.8833,20.97906 -10.3618,22.10618 -13.8933,29.66208 -18.1114,38.75 -6.7883,14.62499 -10.8364,23.241477 -18.6544,39.705497 -3.8406,8.08803 -6.983,14.97055 -6.983,15.2945 0,0.32395 -3.0341,6.92522 -6.7425,14.6695 -6.2145,12.97792 -9.5538,20.07289 -21.6294,45.9555003 -4.5718,9.79925 -8.0621,17.2607197 -16.372,34.9999997 -4.7077,10.0496 -9.8501,21.10444 -17.7344,38.125 -1.9108,4.125 -6.6349,14.09301 -10.498,22.15113 -3.863,8.058123 -7.0237,14.940643 -7.0237,15.294503 0,0.35385 -3.0341,6.97959 -6.7425,14.72387 -6.2145,12.97792 -9.5538,20.07289 -21.6294,45.9555 -9.1277,19.56442 -11.5815,24.78856 -18.3818,39.13531 -3.848,8.11816 -6.9963,14.98117 -6.9963,15.25112 0,0.54178 -7.6146,16.76812 -18.9055,40.28684 -4.0395,8.41406 -7.3445,15.57782 -7.3445,15.9195 0,0.34168 -3.0341,6.95745 -6.7425,14.70173 -8.0479,16.80664 -20.3959,43.1855 -28.8258,61.5805 -3.1571,6.88911 -7.584,16.37528 -16.0419,34.375 -3.0689,6.53122 -7.4066,15.81252 -9.6393,20.62502 -2.2326,4.8125 -7.3649,15.6342 -11.4049,24.0482 -4.0401,8.4141 -7.3456,15.5584 -7.3456,15.8762 0,0.5405 -5.9854,13.5019 -15.6202,33.8256 -2.2815,4.8125 -6.506,13.8125 -9.3879,20 -10.3778,22.2811 -14.6648,31.458 -25.9858,55.625 -2.7375,5.8437 -7.0659,15.125 -9.6188,20.625 -6.7881,14.625 -10.8363,23.2415 -18.6543,39.7055 -3.8407,8.088 -6.983,14.9705 -6.983,15.2945 0,0.324 -3.0341,6.9252 -6.7425,14.6695 -6.2145,12.9778 -9.5538,20.0728 -21.6294,45.95551 -9.1277,19.5643 -11.5815,24.7886 -18.3818,39.1352 -3.848,8.1183 -6.9963,14.9813 -6.9963,15.2511 0,0.27 -2.4791,5.7217 -5.5092,12.1148 -3.0301,6.3931 -6.3744,13.5926 -7.4318,15.9989 -1.0575,2.4062 -2.931,5.9278 -4.1635,7.8258 -3.7308,5.7455 -2.2819,6.8607 22.1045,17.0129 3.4723,1.4456 20.1823,8.1948 51.25,20.7 11.3438,4.5661 21.75,8.8354 23.125,9.4875 1.375,0.652 8.6875,3.6661 16.25,6.6981 36.2724,14.542 55.2191,22.2203 57.5,23.3019 1.375,0.652 8.6875,3.6661 16.25,6.6981 36.2724,14.542 55.2191,22.2203 57.5,23.3019 1.375,0.652 8.6875,3.6661 16.25,6.6981 35.633,14.2858 55.2131,22.2164 57.5,23.2894 3.9849,1.8698 38.5473,15.8491 55.625,22.4984 19.356,7.5364 31.1096,12.2362 34.375,13.7454 1.375,0.6353 7.5625,3.1716 13.75,5.636 6.1875,2.4643 12.375,5.0038 13.75,5.6432 1.375,0.6395 11.7813,4.8506 23.125,9.3583 11.3438,4.5076 21.75,8.7181 23.125,9.3567 1.375,0.6386 7.5625,3.1774 13.75,5.6418 6.1875,2.4643 12.375,5.00384 13.75,5.64324 1.375,0.6395 11.7813,4.8506 23.125,9.3583 11.3438,4.5076 21.75,8.7181 23.125,9.3567 1.375,0.6386 7.5625,3.1774 13.75,5.6418 6.1875,2.4643 12.375,5.0038 13.75,5.6432 1.375,0.6395 11.7813,4.8506 23.125,9.3583 11.3438,4.5076 21.75,8.7181 23.125,9.3567 1.375,0.6386 7.5625,3.1774 13.75,5.6418 6.1875,2.4643 12.375,5.0038 13.75,5.6432 1.375,0.6395 11.7813,4.8506 23.125,9.3583 11.3438,4.5076 21.75,8.7181 23.125,9.3567 1.375,0.6386 7.5625,3.1774 13.75,5.6418 6.1875,2.4643 12.375,5.0038 13.75,5.6432 1.375,0.6395 11.7813,4.8506 23.125,9.3583 11.3438,4.5076 21.75,8.7181 23.125,9.3567 1.375,0.6386 7.5625,3.1774 13.75,5.6418 6.1875,2.4643 12.375,5.0038 13.75,5.6432 1.375,0.6395 11.7813,4.8506 23.125,9.3583 11.3438,4.5076 21.75,8.7181 23.12498,9.3567 1.375,0.6386 7.5625,3.1774 13.75,5.6418 6.1875,2.4643 12.375,5.0038 13.75,5.6432 1.375,0.6395 11.7813,4.8506 23.125,9.3583 11.3438,4.5076 21.75,8.7181 23.125,9.3567 1.375,0.6386 7.5625,3.1873 13.75,5.6636 6.1875,2.4764 12.9375,5.2482 15,6.1594 2.0625,0.9113 11.9063,4.8386 21.875,8.7275 9.9688,3.8889 19.5313,7.6689 21.25,8.3999 1.7188,0.731 12.125,4.9425 23.125,9.3589 11,4.4162 21.125,8.5631 22.5,9.2152 1.375,0.652 8.6875,3.6661 16.25,6.6981 36.2724,14.542 55.2191,22.2203 57.5,23.3019 1.375,0.652 8.6875,3.6661 16.25,6.6981 36.2724,14.542 55.2191,22.2203 57.5,23.3019 1.375,0.652 8.6875,3.6661 16.25,6.6981 36.2724,14.542 55.2191,22.2203 57.5,23.3019 1.375,0.652 8.6875,3.6661 16.25,6.6981 36.2724,14.542 55.2191,22.2203 57.5,23.3019 1.375,0.652 8.6875,3.6661 16.25,6.6981 34.19,13.7072 55.1971,22.2069 57.5,23.265 1.375,0.6319 6.1563,2.6389 10.625,4.4602 4.4688,1.8213 8.8099,3.869 9.647,4.5505 1.933,1.5733 12.2215,19.4191 13.4288,23.2925 0.5001,1.6045 3.7376,7.792 7.1943,13.75 3.4568,5.9578 7.266,13.0938 8.4649,15.8577 1.199,2.7639 5.5746,11.0049 9.7239,18.3134 4.1491,7.3085 7.9459,14.5546 8.4371,16.1025 0.4913,1.548 2.5981,5.6819 4.6818,9.1866 3.7081,6.2371 10.656,19.3835 26.809,50.7269 4.4231,8.5825 8.5127,16.1762 9.088,16.875 0.967,1.1745 5.6453,10.0729 25.3127,48.1454 4.0841,7.9062 7.8923,14.9375 8.4625,15.625 0.5703,0.6875 4.3784,7.7187 8.4625,15.625 19.4621,37.6751 24.3416,46.9683 25.2686,48.125 0.551,0.6875 5.0857,9.125 10.077,18.75 4.9914,9.625 11.9954,23.125 15.5647,30 3.5691,6.875 8.1513,15.3125 10.1828,18.75 6.8165,11.5347 11.8203,23.1928 12.5313,29.197 1.0131,8.5535 -1.0045,10.1906 -12.4886,10.133 -7.7575,-0.039 -11.0055,-0.8617 -23.9733,-6.072 z"
       id="path4160"
       inkscape:connector-curvature="0"
       inkscape:export-xdpi="180.201"
       inkscape:export-ydpi="180.201" />
  </g>
</svg>
